<svg xmlns="http://www.w3.org/2000/svg" width="270" height="358" viewBox="0 0 270 358">
    <path fill="#FFF" fill-rule="evenodd"
          d="M12.71 149C7.71 51.246 59.378 2 134.21 2c74.836 0 126.5 49.246 121.5 147a386.121 386.121 0 0 1-2.662 29.528c.556.092 1.113.212 1.669.361 9.202 2.466 14.662 11.924 12.197 21.125l-11.001 41.055c-2.397 8.943-11.398 14.353-20.35 12.386C215.21 311.276 180.449 356 134.21 356c-46.186 0-80.923-44.625-101.285-102.354-8.607 1.361-17.027-3.972-19.333-12.577L2.592 200.014c-2.465-9.201 2.995-18.659 12.196-21.125.204-.054.409-.105.613-.152A386.125 386.125 0 0 1 12.71 149z"/>
</svg>
